<?xml version="1.0" encoding="utf-8"?>
<!-- Generator: Adobe Illustrator 23.0.3, SVG Export Plug-In . SVG Version: 6.00 Build 0)  -->
<svg version="1.1" xmlns="http://www.w3.org/2000/svg" xmlns:xlink="http://www.w3.org/1999/xlink" x="0px" y="0px"
	 viewBox="0 0 448.9 281.9" style="enable-background:new 0 0 448.9 281.9;" xml:space="preserve">
<style type="text/css">
	.st0{display:none;}
	.st1{fill:none;}
	.st2{fill:#FFFFFF;fill-opacity:0;}
	.st3{fill:#01A9F0;}
	.st4{fill:#FFFFFF;}
</style>
<g id="Calque_2" class="st0">
</g>
<g id="Calque_1">
	<rect x="-91.1" y="-82.5" class="st1" width="612" height="792"/>
	<g transform="translate(58.17500305175781,54.47814178466797)">
		<g>
			<g transform="translate(36.82499694824219,0)">
				<g>
					<rect x="-15.1" y="-38.9" class="st2" width="270" height="253.9"/>
					<g>
						<polygon class="st3" points="107.6,41.7 119.9,18.7 132.1,41.7 162.7,41.7 151.2,20 119.9,-38.9 77,41.7 						"/>
						<polygon class="st3" points="87.9,139.2 61.9,187.9 29.9,187.9 55.8,139.2 25.1,139.2 -15.1,214.9 78.1,214.9 92.5,187.9 
							118.4,139.2 						"/>
					</g>
					<path class="st4" d="M214.4,138.7h-61.2L127,187.9l-14.3,27.1h142.2l-14.4-27.1L214.4,138.7z M157.7,187.9l26.1-49.1l26.1,49.1
						H157.7z"/>
				</g>
			</g>
			<g transform="translate(0,49.0168571472168)">
				<g>
					<g transform="scale(1)">
						<g>
							<path class="st4" d="M-34.6,58.1h24.5l5,18.8H0L-19.6,0.5H-25l-19.6,76.4h5.1L-34.6,58.1z M-22.1,7.7l10.9,45.7h-22.2
								L-22.1,7.7L-22.1,7.7z M22.1,72.5c-8.1,0-9.3-1.4-9.3-11.6V0.5h-5v60.2c0,12.9,2.2,17.1,14.2,16.3V72.5z M46.3,72.5
								c-8.1,0-9.3-1.4-9.3-11.6V0.5h-5v60.2c0,12.9,2.2,17.1,14.2,16.3V72.5z"/>
						</g>
						<g transform="translate(53.48999786376953,0)">
							<g transform="scale(1)">
								<path class="st4" d="M24,45.9h13v7.4C37,60.9,33.5,65,23.6,65s-11.8-4.2-11.8-11.4V23.7c0-6.9,1.9-11.4,11.8-11.4
									C34.2,12.3,36,15.9,36,23h13.7c0-16.3-7.6-22.8-26-22.8S-1.8,7.5-1.8,23v30.6c0,16.5,7.3,23.7,25.4,23.7
									c18.1,0,26-7.2,26-24V33.5H24V45.9z M90.1,53.6c-0.6,5.8-2.8,11.6-10.7,11.6c-4.7,0-8-1.3-8-5.1
									C71.4,55.4,76.3,52.2,90.1,53.6z M73.3,38.6c-0.1-6.2,2.1-8.3,8-8.3c7.1,0,8.8,4.4,8.8,13.1C70,42,58.6,47.4,58.6,61.2
									c0,11,7.2,16.5,16.8,16.5c6.5,0,12.1-3,15.4-7.5l1.3,6.7h11.1V41c0-15.2-6.6-22.8-21.9-22.8c-14,0-21.8,5.8-20.9,20.4H73.3z
									 M116.1,76.9h13.6V40.5c0-7.5,4.2-10.1,9.4-10.1c5.6,0,8.7,3.1,8.7,10.6v35.9h13.6v-36c0.2-8.3,4.1-10.5,9.2-10.5
									c5.6,0,8.7,3.1,8.7,10.6v35.9h13.6V41c0-15.9-7.2-22.9-19.3-22.9c-7.4,0-13.6,3-16.6,7.5c-2.8-5.5-8.6-7.4-14.4-7.4
									c-5.2-0.2-10.5,2-13.8,6.2l-0.9-5.9h-11.8V76.9z M237.3,59c0,4.1-2.7,6.4-9.1,6.4c-5.5,0-9.2-1.8-9.2-11.2v-1.5h31.7V41.1
									c0-15.8-7.3-22.8-22.7-22.8c-15.3,0-22.7,8.1-22.7,22.8v13.3c0,15.8,7.3,22.8,22.7,22.8c15.4,0,22.7-5.8,22.7-18.1H237.3z
									 M228.4,30.1c7.7,0,9.1,4.1,9.1,11.4H219C219,34.4,220.4,30.1,228.4,30.1z M303.8,36.8c0-10.5-6.8-18.6-21.2-18.6
									c-12.7,0-22.1,5.8-22.1,19c0,11.5,8.2,15.1,16.7,16.2c7,0.9,13.5,1,13.5,6c0,2.9-2.8,5.9-8.2,5.9c-6.5,0-8.7-2.4-9-6.4
									h-13.8c0,11.3,8.3,18.3,22.2,18.3c12.6,0,22.6-5.6,22.6-18.3c0-10.4-7.8-15-15.6-15.9c-7.8-0.9-14.5,0-14.5-6.4
									c0-4.1,3.2-6.1,8.4-6.1c4.4,0,7.8,2,7.8,6.4H303.8z"/>
							</g>
						</g>
					</g>
				</g>
			</g>
		</g>
	</g>
</g>
</svg>
